<svg width="600" height="645" viewBox="0 0 600 645" fill="none" xmlns="http://www.w3.org/2000/svg">
<path fill-rule="evenodd" clip-rule="evenodd" d="M0 0C43.0337 0 77.9194 34.8856 77.9194 77.9193V344.591C77.9194 467.242 177.348 566.671 300 566.671C422.652 566.671 522.081 467.242 522.081 344.591V77.9194C522.081 34.8857 556.966 0 600 0V0V344.591C600 510.276 465.685 644.591 300 644.591C134.315 644.591 0 510.276 0 344.591V0V0Z" fill="white"/>
<path fill-rule="evenodd" clip-rule="evenodd" d="M133.962 126.469C169.438 126.469 198.197 155.227 198.197 190.703V201.314C226.287 179.497 261.575 166.507 299.896 166.507C391.541 166.507 465.834 240.799 465.835 332.443H465.837C465.837 424.089 391.544 498.382 299.898 498.382C208.254 498.382 133.961 424.09 133.959 332.446H133.957C133.957 330.691 133.984 328.943 134.038 327.201H133.962L133.962 126.469ZM198.191 332.443H198.194C198.194 388.613 243.729 434.148 299.898 434.148C356.068 434.148 401.602 388.614 401.603 332.446H401.601C401.601 276.276 356.066 230.741 299.896 230.741C243.727 230.741 198.193 276.275 198.191 332.443Z" fill="white"/>
<circle cx="430.762" cy="104.555" r="38.2348" fill="white"/>
</svg>
